<svg width="7" height="4" viewBox="0 0 7 4" fill="none" xmlns="http://www.w3.org/2000/svg">
<path d="M2.48889 0.511121C2.548 0.511121 2.60811 0.507899 2.66666 0.517677C2.72 0.526677 2.767 0.549566 2.82222 0.542121C2.92522 0.528343 2.983 0.467566 3.07777 0.444899L3.17777 0.430566L3.24444 0.412566H3.4L3.63333 0.388899C3.75077 0.388677 3.72577 0.374455 3.82222 0.342233C3.84411 0.334899 3.97533 0.311566 3.99999 0.311121C4.04899 0.310344 4.15722 0.30701 4.19999 0.319233L4.28888 0.351455C4.31266 0.358788 4.33922 0.361899 4.35988 0.376344L4.53544 0.532232C4.56633 0.570343 4.57177 0.615565 4.59022 0.641121C4.60533 0.662121 4.62055 0.665788 4.64144 0.67801C4.72399 0.726565 4.74533 0.744232 4.84444 0.746788H5.03333C5.08366 0.756676 5.12944 0.781232 5.17733 0.776343L5.25655 0.756788L5.38888 0.750676C5.49033 0.73301 5.52555 0.646788 5.66666 0.644454C5.80744 0.642232 5.84255 0.635232 5.97777 0.685788C6.05999 0.716565 6.1351 0.774787 6.22221 0.794899L6.30921 0.802787L6.38899 0.830899C6.41588 0.835565 6.44999 0.829788 6.46977 0.851121C6.49521 0.875343 6.4811 1.01157 6.46977 1.04345L6.36799 1.23334C6.34955 1.27668 6.36021 1.30412 6.34899 1.3319C6.33944 1.35545 6.24544 1.43801 6.2221 1.45079C6.19999 1.4629 6.19021 1.46312 6.16666 1.46668C6.14344 1.53968 6.09621 1.54368 6.04933 1.59212L6.00333 1.6519C5.96155 1.70156 5.89121 1.75079 5.83622 1.78634L5.68066 1.85656C5.6451 1.87923 5.51644 2.03012 5.50266 2.06856C5.49722 2.0969 5.50033 2.16701 5.50266 2.20001C5.4991 2.2719 5.48944 2.38656 5.44777 2.44645C5.38033 2.54345 5.25822 2.55334 5.22422 2.56912C5.18944 2.58523 5.15955 2.62723 5.09999 2.65312C5.05566 2.67234 5.03655 2.66223 5.00188 2.67201L4.87777 2.72734C4.84666 2.74079 4.73999 2.80256 4.71399 2.82278L4.66399 2.86723L4.35555 3.01312L3.94544 3.11223L3.78577 3.17478L3.71111 3.19345C3.62955 3.21523 3.56877 3.24767 3.47966 3.23067L3.31111 3.15556C3.29877 3.07956 3.26311 3.05701 3.18888 3.05556H2.56666L2.36666 3.03334C2.241 3.03312 2.15133 3.02212 2.04278 2.95301C1.91166 2.86945 1.92733 2.81323 1.83333 2.76101L1.7 2.71723L1.35455 2.59045L1.07778 2.51401L0.977776 2.50823C0.903665 2.49579 0.792221 2.44467 0.741221 2.38845C0.707666 2.35156 0.644666 2.22434 0.635999 2.1759L0.630443 2.06767L0.593444 1.93334C0.583999 1.89668 0.58411 1.87368 0.565333 1.83856L0.478222 1.71112C0.451555 1.66879 0.433666 1.62356 0.394333 1.59034C0.268666 1.48412 0.200777 1.52612 0.2 1.3889C0.199 1.21279 0.239777 1.20823 0.3 1.05556H0.344444C0.349888 0.996121 0.386222 0.928121 0.446444 0.906232C0.474555 0.89601 0.647332 0.899565 0.688888 0.90001C0.800666 0.901454 0.795888 0.934232 0.888888 0.966121C0.941554 0.984121 1.01111 0.988787 1.06667 0.988898H1.4C1.51878 0.988343 1.523 0.952565 1.62233 0.922454L1.8 0.90001V0.933343C1.82633 0.931454 1.95433 0.902565 1.97422 0.891565C1.99889 0.877787 2.14411 0.750343 2.25389 0.697899C2.32611 0.663343 2.44133 0.663565 2.50522 0.608121C2.549 0.570121 2.51966 0.541454 2.48889 0.511121Z" stroke="black" stroke-width="0.0111111"/>
</svg>
