<svg width="52" height="75" fill="none" xmlns="http://www.w3.org/2000/svg">
  <path d="M31.253 3.873c.242-.832 1.662-2.953 2.478-3.327.907-.414 2.352-.379 3.343-.377.378 0 1-.042 1.316.18.24.171.62.942.778 1.231.827 1.507 1.081 2.895 1.081 4.587l-.352-.177c-.029 1.089-.055 1.49-1.235 1.588v1.234l1.84-1.285 2.217-.126c.005 1.537.125 1 .33 2.117v1.764c.02 2.014-.353 1.476-1.207 3.029-.404.732-.702 1.595-1.305 2.198l-1.755 1.22c-.263.302-.96 2.105-1.775 2.45-.33.142-1.134.094-1.52.1-1.396.024-2.525.786-3.705 1.421-.642.344-1.45.746-1.767 1.45-.344.743.27.748 0 1.891.762.63.748 1.921 1.287 2.743.759 1.154 1.828 1.073 2.899 1.545.564.25.848.716 1.462.828.358.898.868 1.488 1.147 2.467.167.85-.216.898 0 1.48l1.732 2.456c.58.949.628 1.648 1.707 2.24l1.763 3.807.73 3.073.506 2.47c.476.394 1.037 1.696 1.31 2.294.638 1.404 1.28 1.914 1.513 3.526l1.25.307c.801.156 1.462.04 2.221.538.67.443.938.994 1.362 1.627.227.342.506.674.661 1.056.244.607.526 3.424.152 3.938-.231.315-.993.573-1.364.774-.672.363-.649.522-1.46.404l-3.175 2.293c-.05 1.291-.826 1.563.352 1.94v.706l-3.175 1.508c-.506.164-1.59.452-2.1.41-.734-.062-1.087-.537-2.31-.223-1.157.297-2.596 1.057-3.704 1.512l-4.763 1.478c-.926.235-1.875.249-2.822.254-1.27.009-2.498.448-3.735.697h-1.374c-1.619.228-1.624 1.214-3.358 1.244-.476.007-1.826.061-2.195-.145-.41-.231-.472-.787-.647-1.192-.743-1.724-.697-1.041-.686-3.073.005-1.057.465-2.569.89-3.544.179-.411.569-1.01.634-1.394.088-.529-.201-.811-.182-1.266.021-.457.335-.866.413-1.734V57.85c-1.411-.347-.967-.914-1.552-1.684l-.757-.808c-.95-1.28-1.808-3.84 0-4.74-.302-1.4 1.122-3.346 1.436-4.763l.353.176c.026-.4.23-1.28.13-1.564-.136-.383-.69-.706-1.012-.942-.494-.364-2.435-1.875-2.825-1.99-.712-.212-1.564.058-2.284-.254-1.072-.466-1.533-1.25-2.27-1.983-1.238-1.227-2.034-.998-2.5-3.145.951-.24 1.179-.563 1.89-1.189l.832-.656c.741-.69 1.418-1.92 1.512-2.917l.353.176.582-1.896.901-.965.104-1.726c-1.3.016-1.958.46-2.806.33-.875-.136-.84-.834-1.635-1.122l-.794-.174-.819-.475-2.09-.592L2.5 24.81c-.608-.153-1.776-1.182-2.016-1.759-.429-1.035.17-2.115.268-3.127V18.72c.116-.517.275-.554.328-1.267.042-.596 0-1.893.364-2.369.206-.271.742-.444 1.056-.594 1.939-.93 2.452-.575 4.41-.233h1.588c.677.026.846-.028 1.41.376.585-.43.888-.351 1.588-.353h4.94c.354 0 .87.018 1.203-.09l2.884-1.646c.788-.451 1.489-.564 2.263-1.13 1.804-1.324 3.152-3.17 4.662-4.802.75-.812 1.036-.321 2.041-1.681l.53.176c.266-.608.536-1.138 1.234-1.235Z" stroke="#000" stroke-width=".176"/>
</svg>
