<svg width="9" height="3" viewBox="0 0 9 3" fill="none" xmlns="http://www.w3.org/2000/svg">
<path d="M0.56667 1.66667C0.56667 1.58734 0.563781 1.50612 0.601892 1.43334C0.641336 1.35801 0.745114 1.30512 0.817114 1.26534C0.847336 1.24867 0.880447 1.22467 0.914336 1.21589C0.952003 1.20612 1.04134 1.21578 1.12178 1.18423L1.19056 1.15145L1.38889 1.07167L1.48245 1.02989L1.63145 0.98545L1.79078 0.921672L2.01111 0.883895L2.24445 0.812561H2.41111C2.49256 0.809784 2.51433 0.784673 2.58889 0.767117C2.66856 0.748339 2.68933 0.760895 2.74444 0.753228C2.81611 0.743339 2.78156 0.733562 2.88889 0.733339H2.97778C3.07367 0.733562 3.04122 0.741228 3.11111 0.75545H3.18889C3.28767 0.756117 3.32633 0.778784 3.43322 0.75545L3.61111 0.693895L3.77778 0.672673L3.97778 0.606117L4.11111 0.594562L4.18889 0.562673C4.25944 0.540673 4.34844 0.522562 4.42222 0.522228H4.67778C4.78822 0.523562 4.80744 0.560117 4.86655 0.553784C4.93578 0.546451 4.96133 0.479784 5.07778 0.477784H5.43333C5.55844 0.478006 5.65222 0.55534 5.78889 0.555562H5.97777C6.05633 0.555006 6.04 0.546006 6.1 0.534784H6.23333C6.34033 0.533562 6.31222 0.546784 6.37777 0.554895H6.53333C6.62655 0.556117 6.64033 0.582562 6.69955 0.576339C6.807 0.565006 6.85655 0.458006 7 0.455562H7.39999C7.48822 0.45434 7.47377 0.439117 7.53333 0.426562L7.63333 0.418117C7.69599 0.40634 7.75899 0.378784 7.82222 0.378784H7.98888H8.13133C8.1531 0.385673 8.17844 0.40234 8.16733 0.428229C8.15844 0.448784 8.10055 0.475451 8.07966 0.488228C7.99099 0.542673 8.01144 0.520673 7.94488 0.555117L7.82455 0.626228C7.77577 0.655228 7.76344 0.68845 7.73077 0.724339L7.66422 0.775339L7.62655 0.811673C7.60188 0.827006 7.57066 0.821117 7.53522 0.837895C7.50522 0.852117 7.48966 0.875228 7.44444 0.891672C7.38833 0.912006 7.33611 0.905895 7.28888 0.916117L7.11111 0.969895L7.03333 0.985672C6.93 1.01323 6.93744 1.06601 6.78888 1.06667C6.68811 1.06712 6.47411 1.04556 6.39455 1.10334L6.25911 1.24445C6.20877 1.32723 6.25666 1.34934 6.14089 1.42212C6.12066 1.43478 6.05322 1.47056 6.03144 1.47501C5.98966 1.48356 5.94222 1.46856 5.88933 1.49034C5.826 1.51645 5.71911 1.63712 5.65544 1.65889C5.60566 1.67589 5.40178 1.66223 5.34444 1.65267C5.29344 1.64434 5.30544 1.63456 5.23333 1.63267H5.05655L4.96655 1.61167C4.86789 1.60534 4.78733 1.68212 4.7 1.70589C4.62233 1.72712 4.49789 1.74612 4.45555 1.82223C4.38855 1.84045 4.32489 1.92145 4.26622 1.95723C4.23411 1.97678 4.20411 1.97489 4.16978 1.98589L3.96855 2.06123L3.78689 2.21123L3.58844 2.28767H3.46667C3.25844 2.28856 3.25611 2.25445 3.14444 2.23623C3.05567 2.22167 3.028 2.24123 2.92578 2.19556C2.88211 2.17612 2.82611 2.07912 2.77611 2.06278C2.73256 2.04856 2.66978 2.09012 2.64445 2.12223H2.62222L2.48889 2.02223C2.46711 1.95367 2.39778 1.92123 2.34956 1.87456C2.28589 1.81289 2.24178 1.73567 2.16467 1.68645C2.06922 1.62567 1.94167 1.63156 1.83334 1.63334C1.76222 1.63456 1.77767 1.64467 1.72122 1.65523L1.56711 1.66812C1.50611 1.67545 1.54089 1.68867 1.43334 1.68889H1.06667C0.950669 1.68867 0.953892 1.65345 0.76667 1.65556L0.56667 1.66667Z" stroke="black" stroke-width="0.0111111"/>
</svg>
