<?xml version="1.0" encoding="UTF-8" standalone="no"?>
<!DOCTYPE svg PUBLIC "-//W3C//DTD SVG 20010904//EN"
              "http://www.w3.org/TR/2001/REC-SVG-20010904/DTD/svg10.dtd">

<svg xmlns="http://www.w3.org/2000/svg"
     width="7.04444in" height="7.02222in"
     viewBox="0 0 634 632">
  <path id="Selection"
        fill="none" stroke="black" stroke-width="1"
        d="M 201.00,110.00
           C 201.00,110.00 214.00,105.66 214.00,105.66
             214.00,105.66 226.00,103.27 226.00,103.27
             226.00,103.27 238.00,102.35 238.00,102.35
             238.00,102.35 246.00,101.06 246.00,101.06
             246.00,101.06 254.00,101.65 254.00,101.65
             254.00,101.65 263.00,100.06 263.00,100.06
             263.00,100.06 274.00,100.06 274.00,100.06
             273.88,104.54 274.16,106.50 270.00,109.00
             270.00,109.00 270.00,111.00 270.00,111.00
             277.56,115.51 274.22,123.36 278.43,127.57
             282.73,131.87 294.06,128.67 299.00,137.00
             299.00,137.00 301.00,137.00 301.00,137.00
             301.94,132.98 302.39,130.34 306.00,128.00
             306.00,128.00 306.00,132.00 306.00,132.00
             306.00,132.00 308.00,130.00 308.00,130.00
             308.00,130.00 309.00,130.00 309.00,130.00
             308.76,134.81 308.91,136.00 305.00,139.00
             305.00,139.00 311.00,138.00 311.00,138.00
             311.00,138.00 317.00,141.00 317.00,141.00
             317.00,141.00 318.00,146.00 318.00,146.00
             318.00,146.00 320.00,146.00 320.00,146.00
             320.43,143.60 321.10,135.80 322.02,134.41
             325.81,128.70 335.70,129.95 341.00,132.31
             349.22,135.97 355.26,138.12 364.00,140.37
             367.28,141.21 371.68,142.61 375.00,142.06
             378.33,141.52 379.78,140.35 382.00,138.00
             382.00,138.00 404.00,143.00 404.00,143.00
             404.27,149.65 409.10,153.03 403.00,165.00
             403.00,165.00 401.00,165.00 401.00,165.00
             401.00,165.00 394.12,152.00 394.12,152.00
             394.12,152.00 394.12,157.00 394.12,157.00
             394.12,157.00 406.14,180.00 406.14,180.00
             406.14,180.00 412.61,195.00 412.61,195.00
             412.61,195.00 419.73,206.00 419.73,206.00
             419.73,206.00 421.65,217.00 421.65,217.00
             421.65,217.00 428.64,228.00 428.64,228.00
             428.64,228.00 434.56,242.44 434.56,242.44
             434.56,242.44 444.98,247.65 444.98,247.65
             444.98,247.65 456.00,258.00 456.00,258.00
             456.00,258.00 453.00,265.00 453.00,265.00
             453.00,265.00 463.00,269.38 463.00,269.38
             463.00,269.38 469.91,268.27 469.91,268.27
             469.91,268.27 480.00,266.33 480.00,266.33
             480.00,266.33 487.00,265.48 487.00,265.48
             487.00,265.48 500.00,262.00 500.00,262.00
             500.00,278.50 497.13,276.51 490.37,290.00
             486.48,297.76 482.41,305.78 475.96,311.83
             469.78,317.63 454.87,326.59 449.60,333.46
             447.39,336.35 448.49,338.56 446.26,341.83
             444.28,344.74 440.85,346.27 438.36,352.00
             435.84,357.83 438.75,359.32 433.00,363.00
             436.40,367.12 437.27,372.80 438.00,378.00
             438.00,378.00 435.00,378.00 435.00,378.00
             435.00,378.00 442.68,391.00 442.68,391.00
             442.68,391.00 441.75,399.00 441.75,399.00
             441.75,399.00 441.75,418.00 441.75,418.00
             441.75,418.00 439.00,428.00 439.00,428.00
             433.55,429.28 426.23,432.41 422.10,436.21
             422.10,436.21 417.41,441.37 417.41,441.37
             415.17,443.48 411.65,445.01 410.08,447.76
             407.98,451.44 412.85,457.32 414.02,461.00
             415.42,465.40 413.43,469.19 411.20,472.96
             406.80,480.44 400.07,478.72 397.02,483.39
             395.48,485.73 395.27,494.48 392.87,499.00
             391.59,501.40 389.35,503.79 387.68,506.00
             380.14,515.96 383.44,513.56 373.00,524.00
             370.18,526.82 366.56,530.88 363.00,532.57
             355.46,536.16 348.49,535.28 341.00,536.18
             328.56,537.69 324.29,546.38 316.23,536.98
             311.14,531.05 313.46,526.76 311.50,521.00
             311.50,521.00 303.65,504.00 303.65,504.00
             303.65,504.00 297.82,495.00 297.82,495.00
             294.51,488.61 295.74,487.53 294.47,482.00
             294.47,482.00 292.21,474.00 292.21,474.00
             292.21,474.00 291.61,465.00 291.61,465.00
             291.61,465.00 286.00,452.00 286.00,452.00
             286.00,452.00 283.00,453.00 283.00,453.00
             283.00,453.00 275.63,437.00 275.63,437.00
             274.18,431.88 275.13,420.31 276.29,415.00
             278.50,404.89 285.96,398.91 284.83,393.00
             284.83,393.00 281.07,383.00 281.07,383.00
             280.41,379.90 281.45,378.51 281.07,376.00
             280.92,374.54 275.36,361.63 274.39,360.00
             269.72,352.20 261.22,346.90 258.14,338.00
             255.78,331.20 260.72,331.44 262.28,318.00
             262.91,312.55 260.10,312.99 259.00,306.00
             253.72,306.25 246.35,309.07 242.04,306.82
             236.25,303.81 235.77,295.97 227.00,296.14
             218.31,296.30 206.56,303.39 198.00,305.33
             192.62,306.55 190.20,302.71 179.00,304.18
             171.50,305.16 169.19,309.49 161.00,306.44
             155.41,304.36 146.94,297.04 141.83,293.31
             138.39,290.80 135.93,290.69 134.27,288.49
             130.97,284.10 128.69,269.95 115.00,270.00
             115.00,270.00 115.00,262.00 115.00,262.00
             115.00,262.00 111.00,262.00 111.00,262.00
             110.64,257.51 110.97,251.39 108.00,248.00
             109.69,242.06 114.42,234.12 115.03,228.00
             115.40,224.35 113.88,223.10 113.06,220.00
             113.06,220.00 111.07,207.00 111.07,207.00
             110.74,199.58 117.09,190.07 120.91,184.00
             125.11,177.32 123.76,173.67 132.00,173.00
             128.99,157.69 140.16,165.12 149.75,152.96
             152.76,149.15 151.08,147.93 151.28,144.00
             151.43,141.09 152.91,137.50 154.36,135.00
             161.15,123.30 170.51,125.85 173.00,110.00
             173.00,110.00 187.00,113.83 187.00,113.83
             187.00,113.83 201.00,113.83 201.00,113.83
             201.00,113.83 201.00,110.00 201.00,110.00 Z
           M 272.00,103.00
           C 266.19,102.74 264.60,101.28 263.00,105.00
             263.00,105.00 260.00,103.44 260.00,103.44
             260.00,103.44 245.17,103.44 245.17,103.44
             245.17,103.44 239.91,104.65 239.91,104.65
             239.91,104.65 233.28,104.65 233.28,104.65
             233.28,104.65 218.04,106.72 218.04,106.72
             218.04,106.72 209.96,111.78 209.96,111.78
             209.96,111.78 203.00,111.78 203.00,111.78
             203.00,111.78 203.00,115.00 203.00,115.00
             203.00,115.00 194.00,115.98 194.00,115.98
             194.00,115.98 180.00,115.98 180.00,115.98
             180.00,115.98 181.00,114.00 181.00,114.00
             181.00,114.00 180.00,113.00 180.00,113.00
             180.00,113.00 174.00,114.00 174.00,114.00
             171.00,130.53 156.45,126.32 156.00,141.00
             151.60,142.37 154.25,146.74 154.57,149.99
             154.97,154.06 151.80,157.31 148.00,158.00
             148.00,158.00 147.00,163.00 147.00,163.00
             147.00,163.00 138.00,163.00 138.00,163.00
             137.29,166.07 137.21,168.90 134.00,170.00
             134.00,170.00 132.00,177.25 132.00,177.25
             130.49,177.01 129.76,176.75 128.24,177.25
             122.15,180.46 116.66,195.54 116.00,202.00
             116.00,202.00 114.00,201.00 114.00,201.00
             112.49,208.22 114.88,206.72 115.61,212.00
             115.61,212.00 115.61,218.91 115.61,218.91
             116.11,221.35 117.80,222.99 117.73,227.01
             117.61,234.02 112.87,240.81 112.09,244.00
             111.74,245.47 112.64,257.90 113.00,260.00
             113.00,260.00 117.00,260.00 117.00,260.00
             117.00,260.00 117.00,268.25 117.00,268.25
             119.45,267.67 120.59,267.38 122.99,268.25
             127.40,270.54 136.81,284.79 141.68,289.41
             146.01,293.52 147.24,290.49 152.00,298.00
             158.71,299.25 157.08,301.54 161.26,303.82
             166.39,306.61 174.15,303.68 178.00,300.00
             178.00,300.00 185.09,301.02 185.09,301.02
             185.09,301.02 190.00,302.00 190.00,302.00
             190.00,302.00 189.00,300.00 189.00,300.00
             190.79,301.26 192.81,302.95 195.04,303.22
             198.00,303.59 208.18,299.37 210.00,297.00
             213.52,297.49 224.80,295.50 226.00,292.00
             226.00,292.00 231.00,294.00 231.00,294.00
             231.79,292.22 232.42,294.02 233.00,295.00
             240.31,295.76 235.52,299.86 243.00,302.00
             243.00,302.00 242.00,305.00 242.00,305.00
             242.00,305.00 248.00,306.00 248.00,306.00
             248.00,306.00 261.00,303.00 261.00,303.00
             261.00,303.00 264.82,309.00 264.82,309.00
             264.82,309.00 264.82,317.00 264.82,317.00
             264.82,317.00 262.69,327.00 262.69,327.00
             261.95,330.96 260.66,333.77 261.42,338.00
             262.84,345.95 274.53,354.22 277.24,359.17
             277.24,359.17 282.70,373.00 282.70,373.00
             282.70,373.00 283.68,385.00 283.68,385.00
             284.73,389.57 287.16,393.72 289.00,398.00
             285.47,400.05 285.00,401.53 283.00,405.00
             276.63,416.07 276.89,419.72 277.29,432.00
             277.49,438.34 279.40,438.68 281.75,443.58
             281.75,443.58 284.00,450.00 284.00,450.00
             288.24,451.38 293.11,460.66 293.79,465.00
             294.32,468.41 293.60,470.99 294.61,475.00
             294.61,475.00 296.47,481.00 296.47,481.00
             297.52,485.58 296.61,486.72 298.88,492.00
             301.07,497.11 303.16,498.70 305.65,503.00
             305.65,503.00 313.12,519.00 313.12,519.00
             316.64,527.45 313.15,530.42 318.23,535.93
             324.22,542.43 332.87,535.05 340.00,534.18
             347.49,533.28 354.46,534.16 362.00,530.57
             365.75,528.79 370.93,523.10 374.00,520.00
             380.12,513.80 379.57,513.66 384.09,507.00
             392.07,495.24 393.95,495.57 394.00,480.00
             397.80,479.27 400.05,479.07 401.00,475.00
             401.00,475.00 406.00,476.00 406.00,476.00
             406.00,476.00 405.00,473.00 405.00,473.00
             408.32,472.43 409.06,472.07 410.72,468.95
             414.93,461.00 408.63,457.24 406.75,451.41
             405.42,447.27 408.62,448.02 405.00,442.00
             405.00,442.00 410.00,444.00 410.00,444.00
             410.00,444.00 417.00,438.00 417.00,438.00
             417.00,438.00 415.00,436.00 415.00,436.00
             415.00,436.00 419.00,436.00 419.00,436.00
             419.00,436.00 424.00,429.00 424.00,429.00
             424.00,429.00 426.00,431.00 426.00,431.00
             427.61,428.49 427.91,426.88 431.00,428.00
             431.00,428.00 434.00,427.00 434.00,427.00
             434.00,427.00 432.00,423.00 432.00,423.00
             432.00,423.00 436.00,426.00 436.00,426.00
             440.31,419.31 437.67,418.52 438.12,412.00
             438.12,412.00 439.81,403.00 439.81,403.00
             439.90,397.61 436.06,392.21 433.00,388.00
             437.80,385.66 431.16,378.44 429.00,376.00
             429.00,376.00 435.00,376.00 435.00,376.00
             434.60,371.25 434.35,368.59 431.00,365.00
             431.00,365.00 431.00,369.00 431.00,369.00
             427.31,364.99 427.31,362.01 431.00,358.00
             431.00,358.00 431.00,362.00 431.00,362.00
             431.00,362.00 435.00,360.00 435.00,360.00
             435.00,360.00 431.00,353.00 431.00,353.00
             436.88,351.99 439.81,345.62 443.00,341.00
             443.00,341.00 441.00,339.00 441.00,339.00
             441.00,339.00 443.00,337.00 443.00,337.00
             443.00,337.00 445.00,337.00 445.00,337.00
             445.64,332.90 449.11,330.64 452.00,327.91
             462.34,318.18 461.62,320.49 469.99,313.71
             480.94,304.85 483.06,298.46 489.44,287.00
             494.19,278.47 497.77,275.32 498.00,265.00
             498.00,265.00 488.00,267.48 488.00,267.48
             488.00,267.48 481.00,268.32 481.00,268.32
             481.00,268.32 471.00,270.31 471.00,270.31
             471.00,270.31 463.00,271.68 463.00,271.68
             463.00,271.68 450.00,266.00 450.00,266.00
             450.00,266.00 453.00,260.00 453.00,260.00
             453.00,260.00 443.96,249.65 443.96,249.65
             443.96,249.65 431.65,242.86 431.65,242.86
             431.65,242.86 427.18,230.00 427.18,230.00
             427.18,230.00 420.01,219.00 420.01,219.00
             420.01,219.00 417.15,206.51 417.15,206.51
             417.15,206.51 411.00,203.00 411.00,203.00
             411.00,203.00 414.00,202.00 414.00,202.00
             414.00,202.00 399.75,172.00 399.75,172.00
             399.75,172.00 391.69,157.00 391.69,157.00
             390.76,153.12 393.31,151.15 396.00,149.00
             396.00,149.00 402.00,161.00 402.00,161.00
             406.65,152.99 403.19,149.56 398.00,144.00
             398.00,144.00 387.00,147.00 387.00,147.00
             387.00,147.00 388.00,141.00 388.00,141.00
             384.12,141.89 383.68,142.04 383.00,146.00
             383.00,146.00 381.00,145.00 381.00,145.00
             381.00,145.00 381.00,147.00 381.00,147.00
             381.00,147.00 379.00,148.00 379.00,148.00
             371.27,142.53 355.57,140.11 346.00,137.04
             342.20,135.82 336.39,132.54 333.00,132.30
             329.08,132.03 326.08,133.90 323.00,136.00
             323.00,136.00 326.00,142.00 326.00,142.00
             326.00,142.00 316.00,150.00 316.00,150.00
             316.00,150.00 314.00,143.00 314.00,143.00
             314.00,143.00 308.00,146.00 308.00,146.00
             308.00,146.00 306.00,142.00 306.00,142.00
             306.00,142.00 307.00,145.00 307.00,145.00
             301.58,145.25 301.38,145.47 297.00,142.00
             298.94,139.28 296.33,136.75 293.90,135.22
             289.09,132.20 282.53,131.42 277.00,132.00
             277.00,132.00 274.00,125.00 274.00,125.00
             274.00,125.00 267.00,125.00 267.00,125.00
             267.00,125.00 267.00,120.00 267.00,120.00
             267.00,120.00 270.00,118.00 270.00,118.00
             270.00,118.00 272.00,120.00 272.00,120.00
             272.00,120.00 267.00,107.00 267.00,107.00
             270.53,106.39 270.66,106.33 272.00,103.00 Z
           M 270.00,120.00
           C 270.00,120.00 269.00,120.00 269.00,120.00
             269.00,120.00 270.00,121.00 270.00,121.00
             270.00,121.00 270.00,120.00 270.00,120.00 Z
           M 273.00,122.00
           C 273.00,122.00 272.00,122.00 272.00,122.00
             272.00,122.00 273.00,123.00 273.00,123.00
             273.00,123.00 273.00,122.00 273.00,122.00 Z
           M 302.00,140.00
           C 302.00,140.00 301.00,144.00 301.00,144.00
             303.18,142.57 303.51,142.64 303.00,140.00
             303.00,140.00 302.00,140.00 302.00,140.00 Z
           M 153.00,154.00
           C 153.00,154.00 152.00,154.00 152.00,154.00
             152.00,154.00 153.00,155.00 153.00,155.00
             153.00,155.00 153.00,154.00 153.00,154.00 Z
           M 136.00,164.00
           C 136.00,164.00 135.00,164.00 135.00,164.00
             135.00,164.00 136.00,165.00 136.00,165.00
             136.00,165.00 136.00,164.00 136.00,164.00 Z
           M 134.00,169.00
           C 134.00,169.00 133.00,169.00 133.00,169.00
             133.00,169.00 134.00,170.00 134.00,170.00
             134.00,170.00 134.00,169.00 134.00,169.00 Z
           M 114.00,209.00
           C 114.00,209.00 113.00,209.00 113.00,209.00
             113.00,209.00 114.00,210.00 114.00,210.00
             114.00,210.00 114.00,209.00 114.00,209.00 Z
           M 135.00,282.00
           C 135.00,282.00 134.00,282.00 134.00,282.00
             134.00,282.00 135.00,283.00 135.00,283.00
             135.00,283.00 135.00,282.00 135.00,282.00 Z
           M 136.00,284.00
           C 135.63,287.45 137.03,287.86 140.00,289.00
             140.00,289.00 136.00,284.00 136.00,284.00 Z
           M 146.00,292.00
           C 146.00,292.00 145.00,292.00 145.00,292.00
             145.00,292.00 146.00,293.00 146.00,293.00
             146.00,293.00 146.00,292.00 146.00,292.00 Z
           M 147.00,293.00
           C 147.00,293.00 146.00,293.00 146.00,293.00
             146.00,293.00 147.00,294.00 147.00,294.00
             147.00,294.00 147.00,293.00 147.00,293.00 Z
           M 148.00,294.00
           C 148.00,294.00 147.00,294.00 147.00,294.00
             147.00,294.00 148.00,295.00 148.00,295.00
             148.00,295.00 148.00,294.00 148.00,294.00 Z
           M 154.00,298.00
           C 154.00,298.00 153.00,298.00 153.00,298.00
             153.00,298.00 154.00,299.00 154.00,299.00
             154.00,299.00 154.00,298.00 154.00,298.00 Z
           M 245.00,305.00
           C 245.00,305.00 244.00,305.00 244.00,305.00
             244.00,305.00 245.00,306.00 245.00,306.00
             245.00,306.00 245.00,305.00 245.00,305.00 Z
           M 262.00,308.00
           C 262.00,308.00 261.00,308.00 261.00,308.00
             261.00,308.00 262.00,309.00 262.00,309.00
             262.00,309.00 262.00,308.00 262.00,308.00 Z
           M 260.00,334.00
           C 260.00,334.00 259.00,334.00 259.00,334.00
             259.00,334.00 260.00,335.00 260.00,335.00
             260.00,335.00 260.00,334.00 260.00,334.00 Z
           M 261.00,337.00
           C 261.00,337.00 260.00,337.00 260.00,337.00
             260.00,337.00 261.00,338.00 261.00,338.00
             261.00,338.00 261.00,337.00 261.00,337.00 Z
           M 486.00,397.00
           C 494.19,399.82 497.30,409.87 496.84,418.00
             496.38,426.19 494.33,427.91 492.34,434.00
             492.34,434.00 490.28,442.00 490.28,442.00
             490.28,442.00 484.33,460.00 484.33,460.00
             482.79,464.66 481.26,473.62 478.57,476.90
             474.65,481.69 469.78,482.22 464.00,481.98
             454.71,481.59 455.74,473.80 454.54,467.00
             453.87,463.21 452.72,460.98 453.81,457.00
             454.62,454.07 456.36,451.69 457.62,449.00
             462.05,439.61 455.03,438.03 458.33,429.00
             459.30,426.34 460.92,422.47 463.21,420.75
             465.89,418.74 468.22,420.01 473.96,415.40
             478.68,411.61 478.23,409.34 480.69,406.45
             484.39,402.11 486.21,403.90 486.00,397.00 Z
           M 490.00,401.00
           C 485.20,406.25 481.78,406.57 480.00,414.00
             482.71,412.87 482.45,412.87 483.00,410.00
             483.00,410.00 485.00,410.00 485.00,410.00
             485.00,410.00 482.00,418.00 482.00,418.00
             478.23,414.87 476.76,416.64 473.00,419.00
             473.00,419.00 475.00,424.00 475.00,424.00
             475.00,424.00 471.00,421.00 471.00,421.00
             471.00,421.00 471.00,426.00 471.00,426.00
             471.00,426.00 467.00,423.00 467.00,423.00
             467.00,423.00 467.00,427.00 467.00,427.00
             467.00,427.00 463.00,424.00 463.00,424.00
             463.00,424.00 460.00,432.00 460.00,432.00
             463.01,434.01 464.49,440.38 464.85,444.04
             464.85,444.04 464.85,450.00 464.85,450.00
             465.17,452.47 465.78,453.01 467.00,455.00
             462.69,454.28 462.08,454.07 459.00,451.00
             459.00,451.00 455.00,461.00 455.00,461.00
             459.11,463.44 459.39,465.41 459.00,470.00
             459.00,470.00 457.00,467.00 457.00,467.00
             457.00,467.00 457.00,471.00 457.00,471.00
             457.00,471.00 460.00,471.00 460.00,471.00
             460.00,471.00 458.00,474.00 458.00,474.00
             460.21,481.26 462.78,480.00 470.00,480.00
             470.00,480.00 470.00,479.00 470.00,479.00
             470.00,479.00 468.00,477.00 468.00,477.00
             468.00,477.00 473.00,479.00 473.00,479.00
             479.29,473.94 479.55,472.28 477.00,465.00
             482.49,463.12 481.51,459.14 482.00,454.00
             482.00,454.00 484.00,455.00 484.00,455.00
             484.00,455.00 486.78,444.00 486.78,444.00
             486.78,444.00 486.78,437.17 486.78,437.17
             486.78,437.17 488.00,425.00 488.00,425.00
             488.00,425.00 493.00,420.00 493.00,420.00
             493.00,420.00 489.00,420.00 489.00,420.00
             489.00,420.00 493.00,417.00 493.00,417.00
             493.00,417.00 490.00,401.00 490.00,401.00 Z
           M 460.00,433.00
           C 460.00,433.00 461.00,438.00 461.00,438.00
             461.00,438.00 460.00,433.00 460.00,433.00 Z
           M 463.00,441.00
           C 463.00,441.00 462.00,441.00 462.00,441.00
             462.00,441.00 463.00,442.00 463.00,442.00
             463.00,442.00 463.00,441.00 463.00,441.00 Z
           M 457.00,464.00
           C 457.00,464.00 456.00,464.00 456.00,464.00
             456.00,464.00 457.00,465.00 457.00,465.00
             457.00,465.00 457.00,464.00 457.00,464.00 Z
           M 458.00,473.00
           C 458.00,473.00 457.00,473.00 457.00,473.00
             457.00,473.00 458.00,474.00 458.00,474.00
             458.00,474.00 458.00,473.00 458.00,473.00 Z" />
</svg>
