<svg width="354" height="260" viewBox="0 0 354 260" fill="none" xmlns="http://www.w3.org/2000/svg">
<path d="M244 33C246.85 33.38 253.64 34.98 255.96 34.48C259.74 33.67 269.08 19.8 269.72 16C270.58 10.84 265 6.37002 268.6 2.85002C269.69 1.79002 271.57 1.36 273 1.02C282.97 -1.34 282.16 2.34002 288 3.85002H298C298.25 5.86002 298.95 11.33 299.58 12.82C300.92 15.97 302.93 15.87 304.15 20.09C305.68 25.39 304.03 30.22 308.53 34.69C311.15 37.29 313.18 36.63 316 37.73C321.28 39.78 327.4 45.23 328 51C343.09 47.65 332.97 47 353 47C353 57.38 353.26 62.69 346.99 71.26C345.71 73 343.72 76.67 341.63 77.3C338.61 78.19 336.39 74.79 329 74L330 79C337.3 81.56 333.86 91.76 328.96 95.31L312 104.55L302 108.53C293.65 113.31 294.15 118.16 290.47 121.28C286.88 124.32 283.09 122.72 274 131H281V141C277.6 141.99 276.08 142.81 273.01 144.53C270.35 146.03 265.28 149.21 264.62 152.42C264.17 154.64 267.13 158.95 268.22 161L276.86 177C278.61 180.16 280.97 183.2 280.26 187C279.84 189.26 276 196.51 274.75 199C272.84 202.82 269.09 210.98 266.61 213.91C263.8 217.24 246.2 230.26 242 232.62L236.13 235.28C233.04 237.03 232.41 239.31 227.98 241.89C224.02 244.21 216.64 244.79 212 245L214 260C205.68 259.92 207.09 258.94 200 256C201.03 250.06 204.62 249.83 210 249C205.98 240.67 205.22 240.75 196 240C195.6 238.12 195.49 236.86 194.26 235.22C192.15 232.4 185.5 229.75 182.04 230.68C179.36 231.39 178.05 233.67 174.91 234.57L165 235.22C162.31 235.66 159.6 237.07 157 238L158 240H155L153 243C150.37 238.64 148.24 234.94 144.27 231.57L137.99 227.28C136.42 225.15 137.36 223.47 139 222L138 219C144.28 214.22 139.1 206.88 140 200L127 198C125.69 190.18 120.08 191.78 114 193.57L103 196.72C100.23 197.8 98.25 199.81 96 200.15C92.79 200.63 90.88 197.93 86 198.23C82.3 198.45 78.86 200.64 74 199.61C70.63 198.89 67.14 196.38 64 194.81L54 190.39L42 183.06C39.85 181.72 33.08 178.48 31.91 176.64C30.51 174.16 31.58 170.7 31.91 168C32.3 163.01 32.22 160.24 29.18 156.09C26.74 152.76 22.49 148.19 19 146.07C15.1 143.7 10.37 142.42 8.02002 137.96C6.63002 135.31 7 130.08 7 127L0 125C0.31 122.66 1.02002 114.96 2.02002 113.38C5.27002 108.23 11.95 109.41 17 108.82C22.15 108.21 24.9 106.95 28.85 103.63C31.22 101.64 37.44 96.63 38.13 93.91C39.36 90.05 35.78 82.54 38.13 78.01C41.38 71.25 47.87 71.61 50.04 68.78C51.76 66.53 51 59.04 51 56C57.15 56.14 61.44 55.92 62 63C71.3 54.17 66.84 56.14 69.95 51.46C72.84 47.13 74.71 49.05 78 41C85.06 42.51 83.93 44.96 89.04 48.45C92.18 50.6 97.24 51.29 101 52C101 68.26 96.86 65 100 75C104.64 73.69 106.35 73.87 111 75L116.72 76.53C121.22 78.59 130.2 89.88 135.04 92.57C138.61 94.55 143.96 93.99 148 94C160.88 94.02 167.12 100 175 100.9C178.94 101.36 180.52 99.2 186 98.1L202 96.57C203.48 96.17 215.43 87.9 216.42 86.7C219.51 82.97 218.51 75.5 219.59 73.33C221.73 69.05 227.37 73.61 229 76H233C234.71 73.28 240.2 70.82 242.99 68.9C252.92 62.06 248.64 60.01 263 60V55L253 54.04H241L244 33ZM268 117L256 125L258 132L272 130C264.16 126.3 266.11 124.25 268 117Z" fill="black"/>
</svg>
