<svg xmlns="http://www.w3.org/2000/svg" width="250.68" height="232.01" viewBox="0 0 376 348">
  <path fill="none" stroke="#000" d="M64 24c1.75.97 3 1.57 4.44 3.05C75.56 34.36 66.75 42.8 65.6 46c-.68 1.87-.57 4.04-.6 6l6-1 4 10-3 2c4.06 1.14 5.53.78 7 5l6-1 1 4c3.33-3.62 2.78-4.34 2-9l12-2.29 8-3.04 9 1.33c.64 5.57 2.57 7.12 8 8v2l-8 2 1 3c-2.3 1.82-5.63 4.24-6.48 7.18-2.07 7.19 11.72 16.85 16.48 20.82l-1 3c5.03 3.8 4.08 10.3 4 16-.17 11.18-7.3 10.49-11.58 13.58-5.24 3.79-7.99 7.35-14.42 10.42l2-10c-5.45-.7-9.16-2.18-10-8-7.05-.83-4.67-2.36-9.13-4.55-3.5-1.72-3.38-.17-6.87-3.45l2-2v-1c-4.32 4.35-7.4 16.8-9 23l4 1 2-3c-1.19 5.14-1.46 5.15.69 10.07 3.55 8.16 6.71 6.02 13.55 11.98 2.89 2.52 7.35 7.53 3.76 10.95v2l3 6 3-2c-2.17 10.83 3.51 8.2 1 15l-1-3-3 2-1-3v11h2c.61-3.53.67-3.66 4-5l1 1c-1.87 5.67-2.89 4.24-1 10h2l6-4c.63 3.76.65 4.11 4 6v6h-4l-2 15c8.2-2.33 8.7.48 16 1v4l14-1.91 8.04 1.85H162V237h6v4l11-5c4.29 2.21 4.11 2.54 9 2v2c6.49-1.58 11.81-1.62 18 1l3-5c6.87 6.55 8.65-3.36 12 5l-5 2h6c-.05 1.8.07 3.81-.82 5.45-1.35 2.47-10.37 6.61-13.18 7.55l4-11 4-2c-5.55.58-8.98-1.52-12 3l-12-2 6 5c-3.88 6.9-5.82 1.66-12 0v-4c-4.29.42-15.13 1.2-18-2-2.78.27-2.84.59-4-2.14-7.5 4.08-5.7.3-15 0-2.75.1-7.2.36-9.72 0-4.21-1.38-4.27-2.96-11.28-3.86l-1 3-2.32-2-12.85-4.17H108l-1-4.83 3 1c-4.07-6.09-8.67.25-10-9l-10-4v-4h-4l-4-6v5l-12-9-2-11 4 1c-.32-4.43-.47-5.22-4-8v6h-4l-2-8 6 2v-4h-4c-2.16-8.04-10.3-10.38-13.18-16.44-1.01-2.14-.81-5.21-.82-7.56l8.18 3.49 8.77 2.29 4.91 6.36 10.65 8.59L86 179c-3.54-7.8-7.51-10.68-6-20-4.02-2.41-6.43-8-9-12l-2 3c-.97-4-1.34-6.89-.52-11 1.06-5.32 4.16-8.02.52-13v-2c4.21-5.75.06-6.67-1.52-11.32l-.73-4.68A60.04 60.04 0 0 0 61 92l-.82 3.45-9.36 6.04L45 100c2.97-8.18 3.62-12.45-4-18v-2c1.26-3.44-1.11-3.52-4-4-1.57-5.09-3.32-8.79 3-11l2-12c7.22-1.97 9.92-11.25 10-18l11-2-1-4 2-5Zm7 31h-1l1 1v-1Zm123 44c0-3.77-1.37-14.3 3.33-15.39 1.49-.34 6.51 1.12 8.67 1.39l1.77 9-1.77 7h-4l3 4-2 4 15 2c-.55 2.87-.29 2.87-3 4 3.06 3.88 4.19 3.85 9 4l5.96 28c.58 10.25-2.67 6.3-3.96 14-8.68.65-11.89-2.43-12-11-5.84 1.58-7.43-.12-8 7h-4l2-12 6-2v-2l-7-6h5v-2h-6v-10h-6c-.56-4.31-1.04-5.76-4-9v-2c2.21-4.59-3.72-9.08-1-16l3 3Zm12-6h-1l1 1v-1Zm-6 11h-1l1 1v-1Zm-87 3h-1l1 1v-1Zm96 8h-1l1 1v-1Zm3 9c-4.02-4.99-2.41-6.45-10-7v2l6 1-2 5 6-1Zm-22-3 6 3-6 4 3 5-17 13c.35-5.01.86-6.26 6-7 1.24-8.72 7.63-7.11 8-18Zm23 4-1 4 4-1v-2l-3-1Zm8 12c-4.36 1.03-7.26 1.64-9 6 5.53-.16 7.08-.54 9-6Zm-53 24c.75-5.28 4.52-11.21 10-12 1.43 7.52 4.62 10.33 12 12l-4 8c-8.56 2.34-4.18 7.66-4 14 4.57.66 5.34 1.43 6 6l-9 1 2 2-3 1 2 4c-6.6 4.88-7.97 12.11-8 20l-4-2h-2l-6 2v-4.28h-13.83L136 211l-2-11c-4.94-.71-4.64-4.96-4-9-3.33-2.99-2.2-9.07 2.18-10.11 2.61-.62 5.52 1.04 7.82 2.11l2-7 12-3c1.1-7.9 6.95-10.34 14-12Zm7-6h-1l1 1v-1Zm-4 4h-1l1 1v-1Zm-73 7h-1l1 1v-1Zm-30 1h-1l1 1v-1Zm0 2h-1l1 1v-1Zm17 1h-1l1 1v-1Zm-31 5c4.57.66 5.34 1.43 6 6-4.57-.66-5.34-1.43-6-6Zm37 3h-1l1 1v-1Zm145 15c-3.01-7.14-3.44-14.65 6-16v4l-4 1 4 1 2 9-6-1c1.67 3.02 4.11 6.17 0 8l3 4h-7l-2-10h4ZM86 181h-1l1 1v-1Zm135 0c2.17 4.02.2 5.31-1 10h-26c.39 5.31 1.18 7.63 7 7l2-6c3.43 3.29 4.35 2.94 9 3v4l3 1-3 3-6-2v12c5.66 2.33 6.04 5.66 8 11l-12 1-4-12h-2v12h-8c.01-3.32-.61-5.66 2-8v-2l-6-2 4.98-16 3.02-12 6.8-1.46 14.21 3.09L221 181Zm-146 9h-1l1 1v-1Zm175 1c4.89.17 5.74.19 9 4 3.62-2.57 10.23-1.77 13.4 1.58 1.94 2.05 1.3 4.78 2.11 7.24.97 2.95 2.28 2.83 3.49 7.18 2.94-2.14 7.31-4.94 3-8l1-4-3-4c5.01.35 6.26.86 7 6l8.8-1.45c5.42.8 6.45 5.32 17.2 5.45v41c-9.19-6.81-8.4-5-20-5l3.79-9-1.79-9-3 1c-4.68-4.41-8.24-3.74-13.72-5.46L270 215l-6 2c-.63-3.76-.65-4.11-4-6l2-5-2-3c-8.31-.16-9.66-4.87-10-12ZM82 207c-.45-6.48-2.9-12.98-10-14 .75 5.83 4.37 11.85 10 14Zm190-9h-1l1 1v-1Zm-56 3h14c-1.28 8.92-5.1 4.11-14 4v-4Zm-112 2h-1l1 1v-1Zm98 2h-1l1 1v-1Zm-86 3h-1l1 1v-1Zm119 1 5.17-1.76c3.18-.55 12.48 1.13 14.54 3.63 1.09 1.32 1.06 2.57 1.29 4.13l-10.04-1.77L236 215l-1-6Zm-146 1h-1l1 1v-1Zm4 4h-1l1 1v-1Zm171 13c.61-3.53.67-3.66 4-5v5h-4Zm8-3c8.51 1.02 6.78 6.94 0 9v-9Zm-78 7c3.53.61 3.66.67 5 4h-5v-4Zm67 0c1.58 4.84-3.81 8.83-8 10 1.48-7.68 1.64-6.23 8-10Zm-37 4h7c-1.68 4.19-2.72 3.86-7 4v-4Zm22 0 4 4h-4v-4Zm-100 3h-1l1 1v-1Zm90-1h4v4h-4v-4Zm-76 3h-1l1 1v-1Zm38 2h-1l1 1v-1Zm21 5h-1l1 1v-1Zm-24 3h-1l1 1v-1Z"/>
</svg>
