<svg width="303" height="292" viewBox="0 0 303 292" fill="none" xmlns="http://www.w3.org/2000/svg">
<path d="M263 31C276.13 33.46 298.75 50.27 299 65C299.21 77.63 299.88 73.15 300.83 82L302 106L303 124L300 147V162L299 176C298.95 180.25 299.41 190.5 298.35 194C296.34 200.73 293.14 200.03 293 210C292.93 215.51 293.3 230.7 290.4 234.91C287.37 239.32 276.26 244.72 271 245.88L259 248.04C250.36 250.63 248.9 255.07 242 256.94C237.86 258.07 234.21 257.98 230 258L208 260L187 259L159 262C140.88 262.03 136.43 265.07 120 270.48L111 273.09C102.93 276.06 90.88 286.39 87 288.07C80.88 290.71 61.53 289.92 54 290L41 291H22C19.64 291 15.8 291.42 14.16 289.43C11.35 286.02 11.95 270.82 12 266C12.08 259.56 15.03 249.34 18.63 244L25.59 235L31.31 224.09L37.45 215.99C41.35 209.84 46.9 196.22 47 189C47.04 186.07 47.39 179.6 45.98 177.21C44.33 174.41 36.17 170.71 33 169L17 161.64C12.98 159.3 10.47 156.28 6.99997 153.3C5.61997 152.11 2.56997 149.86 1.60997 148.54C-1.18003 144.71 2.45997 140.86 3.44997 137C4.21997 133.95 3.98997 128.33 3.99997 125L4.99997 110L5.82997 87C6.17997 83.3 5.66997 79.64 6.60997 76L14.14 58C15.85 54.14 17.98 48.21 20.41 45C23.14 41.41 36.89 29.15 41 25.58C48.78 18.82 54.9 12.68 65 8.95999C69.63 7.25999 83.76 6.00999 89 5.99999H127L144 4.99999H181C192.86 5.21999 190.77 13.93 200 12.73C202.46 12.41 212.92 9.32999 215 8.18999C218.26 6.38999 220.09 4.16999 224 2.84999C228.25 1.40999 248.93 0.0999908 252.91 1.58999L259.09 5.45999C264.5 7.88999 267.73 6.86999 271 13C263.26 19.01 262.34 21.7 263 31Z" fill="black"/>
</svg>
