<svg width="4" height="5" fill="none" xmlns="http://www.w3.org/2000/svg">
  <path d="M.52 1.22C.5 1.15.5 1.11.5 1.02.5.93.55.92.57.84L.58.72C.58.6.58.52.6.4.63.32.66.3.7.26L.8.15c.11-.07.21-.06.33-.06h.48c.07 0 .14-.03.21-.04h.08L2 .02h.17c.07 0 .07 0 .13.04.09.06.12.01.12.16l.2.04h.12l.14.02h.24v.28c0 .1-.02.07-.02.2V1c0 .1 0 .06-.02.13l-.02.15c-.05.2-.13.38-.24.55l-.05.06-.07.1c-.08.12-.15.21-.15.35v.17c0 .1.03.1.05.17v.05l.01.06-.01.1c-.1.03-.1.08-.14.15l-.1.13c-.02.03-.02.12-.02.16H2.3l-.02.1v.15l-.04.1c0 .05.03.06.05.1l.01.13-.01.09c-.04.06-.22.1-.29.13-.07.03-.06.06-.13.07-.02.06-.06.07-.11.1-.1.07-.09.04-.16.06l-.08.04h-.2c-.07 0-.13.05-.17 0-.03-.03-.05-.08-.07-.12l-.05-.07L1 4.15c-.06-.11-.08-.13-.06-.26.01-.11.07-.1.07-.26v-.47l.01-.18.02-.06v-.06c.01-.05.03-.03.03-.1v-.1c0-.09.02-.07.03-.15v-.1l.03-.14c.04-.18.1-.25.16-.41.03-.05.06-.15.04-.2a.16.16 0 0 0-.08-.06l-.24-.06C.93 1.5.91 1.46.85 1.4a.9.9 0 0 0-.33-.18Z" stroke="#000" stroke-width=".01"/>
</svg>
