<svg width="4" height="4" viewBox="0 0 4 4" fill="none" xmlns="http://www.w3.org/2000/svg">
<path d="M1.68112 1L1.82557 1.01111V1.05556C1.93857 1.05922 1.93479 1.14567 1.95068 1.23333L2.00346 1.413V1.48789L2.02568 1.55656V1.63289C2.03301 1.68322 2.04668 1.67 2.04779 1.74444C2.04834 1.78144 2.04434 1.85711 2.0539 1.88889L2.14423 2.05155C2.17346 2.089 2.19534 2.08344 2.24757 2.17378L2.29268 2.276L2.34534 2.35744C2.35734 2.37844 2.36557 2.40833 2.3859 2.422C2.4099 2.43811 2.47323 2.43289 2.50334 2.43333C2.57012 2.43433 2.55201 2.44122 2.60434 2.45311L2.72245 2.47133L2.88301 2.52811C2.96701 2.54911 2.97068 2.50511 3.0939 2.58944C3.11401 2.60322 3.14201 2.62155 3.15568 2.64166C3.21112 2.72289 3.10479 2.82189 3.05434 2.87678C3.03756 2.89489 2.94612 2.96244 2.92512 2.974L2.84234 3.01389C2.78779 3.052 2.68301 3.17466 2.61123 3.19522C2.55179 3.21211 2.48268 3.19266 2.42412 3.17778V2.97878L2.40334 2.91111C2.24457 2.93222 2.30668 2.96844 2.20334 2.986C2.12212 2.99989 2.08912 2.969 2.01446 2.96666C2.03146 2.89722 2.06423 2.89655 2.05834 2.81122C2.05401 2.75011 2.02879 2.74855 1.99779 2.70533L1.9199 2.57678C1.89346 2.515 1.92157 2.48355 1.86979 2.426L1.75446 2.30944L1.70001 2.23967C1.67723 2.22133 1.65179 2.22089 1.62746 2.20778C1.56923 2.17655 1.49546 2.08367 1.52068 2.01311C1.52812 1.99233 1.55546 1.96411 1.57001 1.94444C1.49623 1.96544 1.41057 1.96122 1.35357 1.90344L1.27735 1.81111C1.24946 1.78211 1.16546 1.70733 1.15401 1.67578C1.14568 1.65278 1.14779 1.60367 1.14779 1.57778L1.2589 1.53333C1.21023 1.51989 1.21146 1.505 1.17912 1.49456C1.1399 1.48178 1.06979 1.49444 1.02079 1.43667C0.968123 1.37444 1.02912 1.23033 1.05446 1.16667C1.06568 1.13833 1.07557 1.09922 1.10579 1.08611C1.2119 1.04022 1.36023 1.21589 1.4589 1.23367C1.4909 1.24233 1.53768 1.24978 1.56668 1.23367C1.61657 1.19989 1.57457 1.16189 1.68112 1.15556V1ZM1.62557 1.9H1.61446L1.62557 1.91111V1.9ZM1.59223 1.93333H1.58112L1.59223 1.94444V1.93333Z" stroke="black" stroke-width="0.0111111"/>
</svg>
