<svg width="4" height="6" viewBox="0 0 4 6" fill="none" xmlns="http://www.w3.org/2000/svg">
<path d="M2.02223 0.0222168C2.08701 0.0242168 2.06846 0.0278833 2.12223 0.0394388L2.20001 0.04855L2.34446 0.0862167L2.45557 0.111217H2.55368L2.75557 0.16455L2.96479 0.258216L3.15845 0.409882C3.19501 0.435327 3.27845 0.465104 3.32301 0.474993C3.36067 0.483326 3.41445 0.489993 3.43534 0.528326C3.44934 0.554215 3.4449 0.665215 3.44445 0.699992C3.44279 0.811325 3.38267 0.86577 3.32467 0.950103L3.19167 1.13899L3.16123 1.19966C3.13856 1.23621 3.11279 1.25388 3.09734 1.3001C3.08556 1.33566 3.08834 1.41532 3.0889 1.45555C3.09056 1.55599 3.15279 1.64999 3.15534 1.73343C3.15812 1.82066 3.14479 1.8111 3.13623 1.85654L3.12856 1.9191C3.10823 2.00343 3.05656 2.1551 3.05556 2.23332C2.96156 2.23332 2.91368 2.25399 2.8889 2.14699C2.84745 2.14443 2.73568 2.14121 2.7019 2.14699C2.62823 2.16799 2.57179 2.22399 2.50001 2.2471C2.46212 2.25932 2.44468 2.25121 2.4049 2.26754C2.36146 2.28543 2.32701 2.31843 2.28723 2.3421C2.25523 2.3611 2.22368 2.37154 2.20312 2.40577C2.18312 2.43899 2.19157 2.47465 2.18746 2.5111C2.18079 2.57065 2.16723 2.5541 2.16668 2.64443C2.16557 2.82365 2.15579 2.74465 2.14401 2.83332V2.93332C2.13368 2.99421 2.09335 3.10676 2.05423 3.15454C2.02001 3.19632 1.96901 3.22321 1.92835 3.25743C1.90201 3.27954 1.89701 3.29865 1.8719 3.31332C1.81979 3.34354 1.73179 3.36698 1.73535 3.44421C1.73879 3.51876 1.81946 3.60676 1.85312 3.67021C1.8779 3.71709 1.87768 3.74887 1.87779 3.79998V3.96665C1.87801 4.1022 1.91612 4.09043 1.95746 4.18987L1.99412 4.34254L2.05146 4.49198C2.09479 4.6282 2.06723 4.64054 2.08612 4.69676L2.17501 4.86853L2.20334 4.93976C2.23779 4.99865 2.26112 4.98698 2.26668 5.0652H2.14446C2.10968 5.05809 2.09335 5.04453 2.05557 5.05009C1.99112 5.05942 1.93323 5.08776 1.86668 5.08887H1.5889C1.56346 5.08887 1.52879 5.09098 1.50579 5.07987C1.43835 5.04731 1.44146 4.99298 1.43046 4.93431L1.41168 4.87587V4.81109C1.40212 4.74476 1.38913 4.77309 1.3889 4.66665V4.49998C1.39046 4.39454 1.44412 4.34465 1.46968 4.25554C1.48124 4.2152 1.4779 4.15431 1.47779 4.11109C1.47768 4.0652 1.43935 3.85654 1.42501 3.81421L1.29713 3.57221C1.24568 3.49332 1.16068 3.46354 1.11879 3.33954L1.10279 3.25865C1.07401 3.1721 1.04502 3.18254 1.04446 3.07776V2.67776L0.977793 2.27777C0.977349 2.07288 0.991904 2.0271 1.03935 1.83143L1.05213 1.7271L1.11113 1.59999L1.26101 1.54143C1.28879 1.52455 1.29001 1.51143 1.33379 1.4931L1.45068 1.45477L1.60001 1.38621L1.75179 1.3461C1.82023 1.31055 1.79101 1.22088 1.91179 1.2111V1.03332L1.93335 0.933325C1.97735 0.933325 2.07057 0.940769 2.10623 0.91877C2.13901 0.898547 2.16734 0.843881 2.20001 0.811103L2.13334 0.833325C2.08757 0.728215 2.0449 0.64577 2.0249 0.531437C2.0169 0.486326 2.02946 0.445549 2.01435 0.388882C1.98179 0.266994 1.93457 0.273327 1.93335 0.15555L2.0889 0.177772L2.11112 0.0999943C2.06379 0.0796611 2.04612 0.06855 2.02223 0.0222168Z" stroke="black" stroke-width="0.0111111"/>
</svg>
