<svg xmlns="http://www.w3.org/2000/svg" width="765.867" height="522.666" viewBox="0 0 718 490">
  <path fill="none" stroke="#000" d="M245 125c8.7-1.26 17.93-6.68 26.28-9.74l39.44-13.95 13.96-8.11c3.33-2.52 4.17-5.56 10.32-6.09 14.93-1.29 25.88 12.9 31.38 24.89l4.2 10.42c3.35 5.95 19.74 17.72 22.47 22.19 1.28 2.11.84 5.8 1.25 8.39.51 3.22 2.56 7.72 3.74 11l4.41 12.91c1.95 3.62 4.97 4.73 6.83 9.09l8.81 21.83c6.44 10.96 10.85 13.81 19.56 22.59l16.63 16.26 15.63 9.72c3.34 2.17 9.63 9.45 17.24 13.35l15.02 6.85 6.66 2c7.72 3.22 15.15 6.9 23.34 8.94l17.79 2.22L566 294c-.13 9.78-5.4 13.37-12 20l-26.27 26.61-29.72 31c-2.95 3.77-5.39 14.83-8.52 17.09-1.65 1.19-5.34 1.78-7.4 2.39l-5.26 1.67L455 395h-10c-4.15.07-21.6 4.73-26 6.25l-15.09 7.01H393l-9 .7h-16l-15.91 1.3c-3.7.68-4.73 2.22-10 1.63-5.28-.6-20.94-10.15-26.05-13.31-2.9-1.78-7.25-4.23-8.93-7.28-1.54-2.79-1.1-8.07-1.11-11.3-.05-9.33-1.61-7.94-2-16-13.09-.61-14.61-5.34-23.2-13.65-11.07-10.71-9.21-8.99-17.05-21.13l-3.21-4.48c-2.03-4.54-1.14-11.08-1.67-15.74l-1.74-8-1.43-25-2.86-16.91-21.54-27.38-2.4-9.62c-2.16-7.4-4.85-11.87-4.9-20.09v-44c0-2.1-.09-5 .51-6.99 2.04-6.75 16.77-18.44 20.49-26.01Z"/>
</svg>
