<svg width="166" height="82" fill="none" xmlns="http://www.w3.org/2000/svg">
  <path d="M76.2748 2.1082c.1816-.3704.2134-.5027.5503-.7867 1.8557-1.5576 2.4872.3634 4.2124.2576l1.5876 1.0583-.1764 1.0584c-.6157-.0511-.7074-.0053-1.0584-.5292l-.882.5292 2.4696.3528-.3528 1.0584c1.0831-.0123 1.9068-.5168 2.9829-.134.4533.1622 2.2631 1.39 2.4695 1.7798.2223.4198.1253.7885.1958 1.226.1447.8925.3987.9543.3422 2.2437-.0741 1.6882-.9596 2.1697-1.9333 3.3516h1.0584c.1711.5945.3034.6791 0 1.2348.6686.3598-.3598.9702-.7056 1.2348l1.2277.6967 1.9475-.164 3.3515.7021-.3528.8819.1764.1764-.1764.3528c.6157-.3228 1.2772-.575 1.4112.3528l2.4696-.3528c-.2646-.9313-.4727-1.9104.7338-2.1167-.0176-.1306-.067-.1835 0-.4234.5698-1.3618 1.4588.2187 1.7816.4498.2593.1852.5279.2505.8359.2928.409.0583.833.0018 1.233.1323.741.2435 2.175 1.4183 2.364 2.1944.198.8062-.533 4.4699.212 5.4225.28.3563.737.5521 1.13.7514.055-.8396.096-.5803.272-1.2647.27-1.0514.014-1.6176 1.316-1.9104l.706 1.5876c1.069-.1464 1.42-.6068 1.954-.6439.533-.037.796.3581 1.75.2681 1.184-.1111.988-.5574 2.117.3758l-.662-1.9704.309-1.5576h1.411l-.529-.882c2.219 0 1.344.1905 2.477.3299.612.0758.956-.1253 1.404.3757.968-.2222 1.541.1394 2.462.4322.831.2646 2.71.7444 3.535.8026l1.251 2.369c.289.3369.721.4957 1.062.7726.323.2646.644.718 1.07.7797.426.0635 1.426-.3828 1.909-.4904 1.025-.224 2.678-.0882 3.614.4128.627.3369 1.346 1.256 1.413 1.9774.062.6668-.472 1.2771.276 1.6687 1.09.5716 3.311-.5926 4.046.4481.84-.2381 1.454-.2381 2.293 0 .821-1.7216 1.281-1.1554 2.646-1.0584v1.4112h-1.058v.5292l1.235.3528-.177.7056 1.235-.3528-.353-1.2348h-.705l.352-2.1168 2.839.6597 1.954.1976c.353.0441.625-.1111 1.029 0l1.764.7356c1.021.3898 2.076.5856 2.469 1.7587 1.059.1499 1.006.5062 1.794 1.0884l.903.6015c.559.4851.529.8255 1.36.956.522.6562 1.42 1.293 1.588 2.1168 1.656 0 1.621.1306 3.175.5292l-.176.3528h.352l2.117 2.2932-1.235.5292.177.7056-1.764.3528c0 1.0742.354 2.8788-1.235 2.907l-1.411-.2611-.177-.7056-.529.1764-1.058-.7056-.176-1.4111c-1.856.4392-.699.224-2.47 0l-.529-.3528c.58.5521.09 1.1765-.529 1.4111v.7056c-.752.2787-.777.3899-1.588.1764.462.7585.587.8432.84 1.7129.308 1.0636.848.9825.739 2.3372-.152 1.8928-1.801.3475-2.542.5645-.468.1376-1.276.7338-1.713 1.0072-1 .6209-2.403 1.1078-2.792 2.3161-1.574.0053-2.359.2152-2.646 1.9404-.835-.4181-1.027-.9261-1.454-1.0407-.568-.1517-1.552.6632-2.074.8767-1.076.4409-1.979-.3123-2.999.6932 1.782.1094.153 1.4359-.529 1.764l.176.5292-.529.3528h.529l-.882 1.5875c1.062.3722.708 1.4853.277 1.7587-.314.1888-.656.0741-.982 0l-.353 1.0637.705.882c-.573.6774-.924 1.1254-1.764.5292l-.596 1.0884-.109 1.5576c-1.487-.0318-1.108.8661-1.575 1.6581-.343.5803-.972 1.1201-1.6 1.3406l-.353.5292.176.3528h-.529c-.134.5257-.213.4939-.706.7056l.353.5292c-.732-.2858-.668-.688-.705-1.4112l.529-.1764h-.706c.473-.9208.704-.8467 1.588-.5292-.515-1.2224-.219-.9331-.399-1.9245l-.308-1.0901v-1.2119l-.309-1.0954c-.187-1.0654-.092-3.348.372-4.3235.213-.4463.684-.8626.997-1.2912-1.221-.5645 1.113-.9843 1.411-1.0584l-.177-.5292c1.66-.4834 1.212-1.1942 1.641-1.8063.312-.4481.688-.4005 1.535-1.5453-1.011-.0123-1.524-.0423-1.412-1.2348-.462-.4163-.331-.6738-.176-1.2347h-.882l.176-.5292-1.411.3528c.623.2575.24.3951-.176.5291-.115.6721-.132.6915-.706 1.0584l.177.5292-.53.1764.353-1.2348-.353.7056-.529.7056c-1.653.8591-.012 1.4094.247 1.988.115.2558.097.561.106.8344h-.353l-.353-.882c-.167.538-.546.4798-1.058.5292l-.705.5292-.177-.7056c-.594 1.4112-2.328 1.6564-2.822.3528h-.706v-.7056c-.607 1.3777-1 .5451-2.115.5486-.448 0-.824.1834-1.236.3334l.352-.7056-.529.7056c-.684-.157-.762-.1835-.882-.882l-1.686.4075-1.489 1.1801.706-1.2348c-.755.3493-.935.6474-1.235 1.4112-1.203.3298-.838.7408-.882 1.764-.238-.0636-.485-.1659-.734-.0882-.914.2787-1.718 1.995-2.33 2.6724-.489.5415-.981.7003-1.346 1.2965.984-.3158 1.512-.478 2.117.5292l-.706.5292 2.47.1764c.231.4216.924 1.3865 1.503.9472.269-.2046.359-.9631.437-1.3l1.235.1764c-.272.7514-.385.7708-.177 1.5876l.353-.5292.33 2.1167.199 2.1168c-.155.2135-.241.2505-.291.5469-.074.4286.598 2.182.868 2.5295.217.2787.362.3122.658.4516v.882h-.882l-.882-1.0584-.529 2.8223c.714.4428.725.8115.529 1.5876l-.705-.1764-.353.5292.353-.882-.53-.1764-.352.7056.352.3528h-.882c0-.8326-.257-2.8029.353-3.3515-.749-1.7746-.095-2.0639-.091-2.8383.005-.8926-.521-.7497.091-1.9245l-.705.7056-.53-.1764.177 2.9988c-.649.4286-.386.545-.748 1.1007l-1.323 1.8116-.393.8943c-.671 1.0972-2.636 2.863-3.004 4.1313l-1.412.3528-1.234.7056v-.3528l-1.059-.1764-1.058.5292c.24-.8538.607-1.1413.677-1.764.131-1.1713-.663-.8608.205-2.1168l1.411.5292 1.406-3.3516.534-.7055-.176-.882-.176-.1764c-.951.3351-3.386 1.7833-3.853.1658-.033-.2223-.025-.6333 0-.8714l-1.866-.852-1.17-.344-.51-1.4341-.536-1.4288-.279-1.0496-.6063-1.4182c-2.0586-.0247-2.041-.9667-2.9988-.3528h-2.1168l-.5292 1.5875c1.2013.441.1782 1.166-.5292 1.4112l.1764.7056-.5292.1764-.1764 1.5876c-1.3018.3334-1.0513.5803-2.4695.1764-.2805 1.2489-1.2719 2.1944-.5292 3.3515l2.6459-.7055c.5522 1.0619.9667.6085 1.0584 1.9403-.9984-.1446-2.1185-.1358-2.9758.4851l-.8714.875c.3298-.2399-2.3055 1.046-1.9739.9014-.6827.2804-1.2436-.1465-1.7393 0-.3828.0846-.6562.6121-.9067.9137l.5292 1.0584-2.1326 1.2859-2.6301.2329c-.7762.2046-1.4923.7955-2.1168.8026-1.1942.0106-3.0182-.9808-3.4009-1.0796h-2.9494c-1.3247-.0247-.9261-.3104-2.2932 0-.4092-.9031-.8714-1.4782-.7056-2.4766-1.0954.4039-1.1712-.3158-2.4201-.7709-.3352-.1217-1.7446-.254-2.1662-.2875-.0917-.9349.2117-1.8786-.3528-2.646-.1164-1.0231-1.2348-1.3688-2.1168-1.5875l-.7056-1.4112-1.9403-.1358-1.764-.9226-.3528-1.2348c-1.1413.3246-2.1644.3916-2.9988-.5292l-.882.7056-2.1979-3.8243-1.33-1.644c-1.2948 1.1677-1.6476 1.0584-3.1752 1.5876v-1.2348c-.5909-.0053-2.0691-.0053-2.369-.6051-.1323-.2663-.1005-1.016-.1005-1.3353l-1.2348-.3528-.1764.5292-.7056-.1764v.3528l-.5292-.1764c-.5539.6368-1.6723.7038-2.4696.7056v.7056l-1.0584-.3528c-.6121.702-1.9474.8432-2.8223.7056v.882h.7056v.882h-1.2348l.1764 1.0583-.7056.5292c1.3106-.2205 1.1695.8485 1.0584 1.764-1.0178.3158-2.7483.8361-3.3516-.3528-.7338.3722-.9031.531-1.5876 0-.3616.7144-1.1871.9808-1.4111.3528l-1.2348.3528.1764-.5292-.3528-.5292-.3528-.3528-1.4112-.3528c-.2258.6333-.9843.2241-1.4112 0l.1764.7056h-.882l.1764.3528h-.5292l-.5292 1.764h-1.2348l-.1763-.7056c-.2241 1.7569-.6016 1.009-.3528 3.1752 2.4307.0705 1.427 2.0144 2.9987 2.8223-.3104.8855-.7444 1.1254-1.4112 1.764.6703.5027.568.8255.3528 1.5876.471.2028.4252.2081.344.7056.7074.2963.4445.702 0 1.1536-.6597.6527-1.1536 1.2454-2.1079 1.3159l.3527.882-.3527.1764v.1764h-.3528l-.5292-.3528.3528-1.2348-1.5876-.7055v-.7056c-.6809.0899-1.2771.2116-1.764-.3528l-3.3516-.5292.1764.5292c-.8925-.3334-1.4164-1.5135-2.6459-2.1062-1.2613-.6086-1.7993.1411-2.4696-.7162.8256-.1376.9579-.2717 1.2348-1.0584l.7056.1764.3528-1.0584c-.7779.2911-.9402.3899-1.764.1764l-.3528.3528c.5698-1.6281 2.3108-.4763 2.4696-2.6459l1.764-.7056-.7056-1.5876.7056.3528c-.8027-1.3071-1.4871-.3087-2.646-1.5876-.9402 1.0478-2.1503-1.0055-2.392-1.1801-.224-.1605-.3616-.1641-.6068-.2311l-.3528-1.764H6.5976c-.7496.8168-1.1765-.1605-1.2347-.8819l-.7056.3527c.3616-1.0495.6932-1.1977 1.764-1.2347v-.5292c-.8397-.12-1.2913-.5716-1.4112-1.4112l-.3528.1764-.3528-1.0584c.2875-.4869.171-.5345 0-1.0584l-1.0584.5292v-.882l-1.4112.1764c-.0053-1.4641-.6191-1.7728 0-2.646-1.8134-.9155-.1446-3.9742.3528-5.2919l-.882.1764v-.3528l1.2348-.1764H1.3057l2.646-3.7043c.5697-.1253 1.1854-.9737 1.173-1.5647-.0123-.6068-.8908-.8114-1.0795-1.4852-.143-.5045.2187-.7268.1076-1.316-.0988-.5274-.5504-1.0989-.6386-2.1608-.0582-.6862.1905-1.3636-.2681-1.9404.3845-.9896-.2258-1.2225-.2893-2.1168-.0582-.8202.5627-1.3494.5821-1.8663.0106-.2716-.351-1.0037-.4692-1.3089l-.5292.1764c-.1447-1.1465-1.0037-2.7535.7056-2.9987.0794-.9843.3475-1.3265 1.2348-1.764l.1764.5292-.1764-.882.5292-.1764.7056.5292c.4092-.9719 1.8116-.2223 2.1167.7056 1.5276.0988 3.0535 1.0002 4.2195 1.9474.9366.7603 1.0266 1.3089 2.3072 1.5806.4552.8608.7956.732 1.2648 1.3847.5239.7232.5557 1.8469.3228 2.6724l.3528-.7056c1.0073.0794 1.1343.3634 1.5876 1.2348.351-.9949-.1852-1.2119-.1605-2.2932.0176-.7885.3898-1.1818.224-1.7569-.2505-.8732-.8485-.538-.9455-1.9474.852.0088 2.8894.3863 3.5456.9014.598.4692.9526 1.4429.5116 2.0973l.3528.3528c-.8485.0265-.8979.03-1.5876.5292.7038.2329.8185.5574 1.0707.6156.7973.18.6933-1.4235.6933-1.8504h1.0583v-.7056c1.4394.0389 1.1131-.4127 2.1486-1.0125.635-.3686.4974-.1305 1.3335-.7338.441-.3175.7585-.3669.9279-.8996l1.5876-.3528v.7056l.3528-.1764.7056.882c.2134-.5927.829-.2135 1.2347 0v-.7056c1.5223-.1041 1.4147-.6686 2.9988 0l-.1764-.7056.3528 1.0584h.3528c-.1588-2.3073-1.3195-1.5576-2.646-4.41.2981-.1217.7779-.3951 1.0743-.4198 1.1924-.097 1.1183 1.1854 2.4537 1.7499.695.2946 2.0568.3263 2.4695.7779h.6298l2.4554 1.5399.4428.7621h.882l-.1764.5292.5292.1764c-.1835-.4887-.3987-1.1219-.7868-1.4853-.4233-.3969-1.0142-.4004-1.2506-1.3883-.1394-.5803.1552-1.1324.1711-1.7128.0229-.8555-.4551-2.2244-.1447-2.9758.2664-.6456 1.0531-.7426 1.5224-1.8363.5609-1.3071.3722-1.8434.5309-2.743l.3105-1.0884h.7056v-1.7639l1.3547-.2223 1.4676.9278-.5292 1.4112c.9297.1041 1.5841.314 1.9404 1.2348l-.882.3528.7056-.1764-.1764 1.5876c.2734-.1235.4463-.187.695-.3757 1.4412-1.0814.0265-1.9933-.2416-2.6725-.1165-.2945-.0971-.6932-.1006-1.009.8979.0847 1.2454.1094 1.4112 1.0584.7885.2734 1.226.8203.7056 1.5876l.1764 1.0584.7056-.1764c-.0529-.2258-.1288-.4533-.1217-.6897.0176-.5768.5874-1.2242 1.1959-1.1519.6721.0794 2.1697 1.1184 2.8065 1.4888l-.2222-1.5876-.8362-2.9987c1.4536-.0177 1.166-.2241 2.1168-.3299 1.2136-.1358 1.3283.254 2.4696-.5521l-1.764.1764-.5292-.5292v-.7056c.972 0 2.9847-.1182 2.9988 1.2348.7602-.4622.5627-.7868.7056-1.5876l-1.0584.3528v-.5292h-.7056c.3263-.635.3757-.6756 1.0584-.882l-.1764-1.0584h1.4112c.2081-1.2806.7708-1.3953 1.9403-1.4112l1.4112-1.5876h1.764c.3722-.7338.6738-.6456 1.4112-.882-.4199-.3845-.1217-.7143 0-1.2347 1.6934-.007 1.2065-.1764 2.4695-1.0584l.3528.3528 1.5876-.3528c.284 1.0055.6844.7056 1.5876.5292l-.3528-1.046c.9014.0458 1.6335.5574 2.1203 0 .3087-.344-.0247-.6668 0-1.42.0406-.7674.9878-2.1874 1.7605-2.2968Zm4.2335.882h-.1764l.1764.1764v-.1764Zm1.5876.1764h-.1764l.1764.1764v-.1764ZM73.0996 6.871h-.1764l.1764.1764V6.871Zm14.8174 4.5863h-.1764l.1764.1764v-.1764Zm-28.7528 2.9988h-.1764l.1764.1764v-.1764Zm26.4596.882-.7056-.7056-.1764.7056h.882Zm-25.0484-.1764c-.3775.2999-.4375.284-.1764.7056l.1764-.7056Zm25.9304.1764h-.1764l.1764.1764v-.1764Zm-.1764.1764h-.1764l.1764.1764v-.1764Zm-29.282.3528h-.1764l.1764.1764v-.1764Zm26.4597 0h-.1764l.1764.1764v-.1764Zm-.882 1.2348h-.1764l.1764.1764v-.1764Zm.882 0h-.1764l.1764.1764v-.1764Zm-.5292.3528h-.1764l.1764.1763v-.1763Zm-.7056.3527h-.1764l.1764.1764v-.1764Zm20.2857 0h-.176l.176.1764v-.1764ZM45.0524 18.866h-.1764l.1764.1764v-.1764Zm49.3913 0h-.1764l.1764.1764v-.1764Zm8.9963.3528h-.176l.176.1764v-.1764Zm-54.8597.3528h-.1764l.1764.1764v-.1764Zm-1.2348 2.1168h-.1764l.1764.1764v-.1764Zm8.4671 1.4112c1.0496-.434.1411-1.5964-.882-1.2348l.7056.1764.1764 1.0584Zm-5.8211-1.0584h-.1764l.1764.1764v-.1764Zm53.2725.1764h-.177l.177.1764v-.1764Zm-53.4489.1764h-.1764l.1764.1764v-.1764Zm-2.2932.1764h-.1764l.1764.1764v-.1764Zm76.9091.1764h-.176l.176.1764v-.1764Zm-74.4395.882-.1764.882h.1764l.3528-.3528-.3528-.5292Zm-2.8224.882c-.1358.5203.0283.6597.3528 1.0583l-.3528-1.0583Zm.7056 1.0583-.5292.5292v-.3528h-.1764v1.4112l.5292.3528.5292-1.2348-.3528-.7056Zm-.7056 1.764-.1764 1.2348c.4887-.3651.568-.4692.3528-1.0584l-.1764.3528v-.5292Zm104.0749 1.764h-.177l.177.1764v-.1764Zm-104.0749.1764.3528 1.0584-.3528-1.0584Zm-43.5702.3528h-.1764l.1764.1764v-.1764Zm44.0994 1.4112c-.1517.6121.2523 1.2206.5292 1.764-.0088-.852.0512-1.0972-.5292-1.764Zm-19.2273.5292h-.1764l.1764.1764v-.1764Zm5.2919.882h-.1764l.1764.1764v-.1764Zm14.8174.5292h-.1764l.1764.1763v-.1763Zm-.1764.1763h-.3528l-.5292 1.2348.7056.1764c.3387-.6491.3634-.695.1764-1.4112Zm-.882.1764h-.1764l.1764.1764v-.1764Zm49.5678.5292h-.1764l.1764.1764v-.1764Zm-49.7442 1.0584h-.1764l.1764.1764v-.1764Zm.5292 0-1.0584 1.4112c.8873-.2699.9861-.5151 1.0584-1.4112Zm-39.513 2.4696h-.1765l.1764.1764v-.1764Zm7.585.1764h-.1764l.1764.1764v-.1764Zm30.164 0h-.1764l.1764.1764v-.1764Zm-31.046.1764h-.1764l.1764.1764v-.1764Zm-5.9975.1764 1.0584 2.8224c1.3212-.6227 1.2701-.6033 2.3973.2134l1.1307.6685.1764-.3528-.1764-.1764.5291-.1764c-.8731-.7461-.702-.9719-.3527-1.9403-1.6335-.0018-3.2652-.4075-4.7628-1.0584Zm5.2919.1764c-.1517.3616-.1375.2981.1764.5292l-.1764-.5292Zm150.4669.3528h-.176l.176.1764v-.1764Zm-.176.1764h-.176l.176.1764v-.1764Zm-150.4673.1764h-.1763l.1763.1764v-.1764Zm140.2363 1.9404h-.176l.176.1763v-.1763Zm-.176.1763h-.177l.177.1764v-.1764Zm-144.4702.1764h-.1764l.1764.1764v-.1764Zm1.4112 1.9404c-.2258-.8202-.374-1.0919-1.2348-1.2348l.1764.7056.5292.3528.5292.1764Zm.7056 0h-.1764l.1764.1764v-.1764Zm50.2733 2.1168h-.1764l.1764.1764v-.1764Zm.3528.5292h-.1764l.1764.1764v-.1764Zm70.5593 1.9404h-.177l.177.1764v-.1764Zm3.528.882-.882 1.0583.529-.1764c.374.7974.852-.1076 1.058-.5292l-.705-.3527Zm-1.059 1.0583-.705.7056c.522-.2099.515-.1746.705-.7056Zm.53.3528h-.177l.177.1764v-.1764Zm-.177.1764h-.176l.176.1764v-.1764Zm-1.411.3528h-.176l.176.1764v-.1764Zm.529 0h-.176l.176.1764v-.1764Zm6.174.7056h-.176l.176.1764v-.1764Zm-138.4721.1764h-.1764l.1764.1764v-.1764Zm125.9481.3528h-.177l.177.1764v-.1764Zm9.702 0h-.177l.177.1764v-.1764Zm-73.5581.1764h-.1764l.1764.1764v-.1764Zm73.3811 0h-.176l.176.1764v-.1764Zm2.294 0h-.177l.177.1764v-.1764Zm-15.347.882h-.176l.176.1764v-.1764Zm1.411.882h-.176l.176.1764v-.1764Zm10.055.5292-.529.882.529-.882Zm-54.6835 1.764h-.1764l.1764.1764v-.1764Zm28.4005 4.9391-.53-.5292.53.5292Zm-65.2676 0h-.1764l.1764.1764v-.1764Zm66.1496.3528h-.177l.177.1764v-.1764Zm.705.3528.177.7056-.177-.7056Zm-65.7963.3528h-.1764l.1764.1764v-.1764Zm-10.5838.3528h-.1764l.1764.1764v-.1764Zm82.2011 1.9403c-.354.7127-.328 1.2225 0 1.9404v-1.9404Zm-47.6272.5292h-.1764l.1764.1764v-.1764Zm45.5102 1.2348h-.529v.7056l.529-.7056Zm14.289.882h-.177l.177.1764v-.1764Zm-72.3234.1764h-.1764l.1764.1764v-.1764Zm59.7984 2.646c-.435.7585-.688 1.4429-.352 2.2931l.352-2.2931Zm-7.761.5292h-.176l.176.1764v-.1764Zm9.525.1764h-.176l.176.1764v-.1764Zm-43.9226 4.5863c-.2999.478-.3863.6421.1764.882l-.1764-.882Z" stroke="#000" stroke-width=".1764"/>
</svg>
